<svg width="1920" height="10984" viewBox="0 0 1920 10984" fill="none" xmlns="http://www.w3.org/2000/svg">
<path opacity="0.2" d="M-23.2445 11142L-22.4092 11138.4C499.629 11274.5 472.088 11609 442.061 11963.5C419.711 12228.9 397.256 12503.2 598.631 12717.2C760.332 12889.1 891.03 12824.7 1042.34 12749.8C1151.9 12696.1 1275.42 12634.8 1429.53 12657.2C1605.94 12683 1794.03 12814.7 2004.15 13060L2001.34 13062.4C1792 12818 1604.57 12686.7 1429.35 12661.1C1276.96 12638.8 1153.31 12699.6 1044.28 12753.2C891.382 12828.5 759.748 12893.6 595.826 12719.6C393.013 12504.3 415.873 12229.4 438.096 11963.5C467.971 11610.7 495.764 11277.2 -23.2445 11142Z" fill="#ABABAB"/>
<path opacity="0.2" d="M1981 0.999512C1548.17 16.8328 628.6 219.299 413 902.5C197.4 1585.7 907.833 2323.5 1290 2607C1701.17 2878.33 2276.8 3983.5 1290 6233.5C56.5 9046 222.5 9260.5 1290 10692.5L2083.5 11721.5C1816.83 11756.8 1309.1 12026.9 1411.5 12824.5C1513.9 13622.1 416.833 14546.5 -144.5 14909" stroke="#ABABAB" stroke-width="2"/>
<path opacity="0.2" d="M-1049 91.4995C-616.167 107.333 303.4 309.799 519 993C734.6 1676.2 24.1667 2414 -358 2697.5C-769.167 2968.83 -1344.8 4074 -358 6324C875.5 9136.5 709.5 9351 -358 10783" stroke="#ABABAB" stroke-width="2"/>
</svg>
