<svg width="241" height="93" viewBox="0 0 241 93" fill="none" xmlns="http://www.w3.org/2000/svg">
<path d="M69.1875 23.3438C69.0208 23.0521 69.8125 22.0312 71.5625 20.2812C73.3333 18.5104 74.2188 17.2083 74.2188 16.375C74.2188 15.7708 74.1146 15.4062 73.9062 15.2812C73.6979 15.1354 73.1042 15.0625 72.125 15.0625C70.7083 15.0625 68.7292 15.4792 66.1875 16.3125C64.0833 16.9792 60.625 18.4688 55.8125 20.7812C51 23.0938 46.8854 25.2396 43.4688 27.2188C39.6146 29.4479 34.6875 32.6354 28.6875 36.7812C22.6875 40.9271 18.9792 43.7083 17.5625 45.125C17.0417 45.6458 16 47.8646 14.4375 51.7812C14.0208 52.8438 13.7292 53.5729 13.5625 53.9688C13.3958 54.3646 13.2083 54.9167 13 55.625C12.7917 56.3125 12.6562 56.75 12.5938 56.9375C12.5521 57.1042 12.5521 57.4271 12.5938 57.9062C12.6354 58.3646 12.6875 58.6458 12.75 58.75C12.8333 58.8542 13.0312 59.1146 13.3438 59.5312C13.6562 59.9479 13.9167 60.25 14.125 60.4375C14.3333 60.6042 14.7188 60.9479 15.2812 61.4688C18.7604 64.6771 22.9792 66.4583 27.9375 66.8125C32.9167 67.1667 38.9062 66.125 45.9062 63.6875C49.0938 62.5625 51.1667 61.9167 52.125 61.75C52.7292 61.625 53.0938 61.6146 53.2188 61.7188C53.3646 61.8021 53.3958 62.0833 53.3125 62.5625C53.25 63 52.9688 63.3958 52.4688 63.75C51.9896 64.0833 51.0625 64.5208 49.6875 65.0625C41.8542 68.1667 34.8021 69.5521 28.5312 69.2188C22.2812 68.8646 17.1979 66.8021 13.2812 63.0312L10.8438 60.7188L9.5625 63.9375C6.70833 71.0208 4.6875 76.9583 3.5 81.75C2.3125 86.5417 2.22917 89.1354 3.25 89.5312C3.45833 89.5938 3.63542 89.7396 3.78125 89.9688C3.92708 90.1979 4 90.4375 4 90.6875C4 91.1042 3.76042 91.3854 3.28125 91.5312C2.82292 91.6979 2.3125 91.6979 1.75 91.5312C1.20833 91.3854 0.833333 91.1042 0.625 90.6875C0.208333 89.8958 0.0625 88.5312 0.1875 86.5938C0.3125 84.6562 0.6875 82.5208 1.3125 80.1875C1.91667 77.8958 2.9375 74.6979 4.375 70.5938C5.83333 66.4688 7.02083 63.375 7.9375 61.3125C8.60417 59.6667 8.92708 57.8542 8.90625 55.875C8.84375 54.1458 9.09375 52.6042 9.65625 51.25C10.2396 49.8958 11.3021 48.2812 12.8438 46.4062C13.4062 45.7188 14.0312 44.7604 14.7188 43.5312C15.4062 42.3021 15.9792 41.0833 16.4375 39.875C17.4792 37.2292 19.4479 31.5833 22.3438 22.9375C25.2604 14.2917 27.1354 8.52083 27.9688 5.625C28.6562 3.25 29.2083 1.71875 29.625 1.03125C30.0417 0.34375 30.5208 0.166667 31.0625 0.5C31.5833 0.833333 31.4896 2.28125 30.7812 4.84375C30.0938 7.38542 28.1042 13.5833 24.8125 23.4375C23.25 28.1042 21.9375 32.0833 20.875 35.375C19.8125 38.6458 19.3021 40.2812 19.3438 40.2812C19.4271 40.2812 20.6458 39.4167 23 37.6875C30.0625 32.5 37.75 27.6042 46.0625 23C54.375 18.375 61.1042 15.2604 66.25 13.6562C68.1875 13.0521 69.9375 12.7292 71.5 12.6875C73.0625 12.625 74.2708 12.8229 75.125 13.2812C76 13.7396 76.5833 14.3646 76.875 15.1562C77.1667 15.9479 77.0417 16.9271 76.5 18.0938C75.9583 19.2396 75.0312 20.4583 73.7188 21.75C72.7396 22.7083 71.8229 23.3438 70.9688 23.6562C70.1146 23.9479 69.5208 23.8438 69.1875 23.3438ZM71.1538 56.6562C71.3621 57.1771 71.1642 57.7292 70.56 58.3125C69.9767 58.8958 68.3413 60.1354 65.6538 62.0312C62.6121 64.1979 60.2892 65.5729 58.685 66.1562C57.0808 66.7396 55.5913 66.75 54.2163 66.1875C52.9663 65.6875 52.31 64.5 52.2475 62.625C52.185 60.7292 52.7267 58.5729 53.8725 56.1562C54.6017 54.6146 55.3308 53.375 56.06 52.4375C56.81 51.4792 57.6954 50.8333 58.7163 50.5C59.7788 50.1667 60.6329 50.3542 61.2788 51.0625C61.9454 51.75 62.185 52.5625 61.9975 53.5C61.81 54.5 61.1121 55.6562 59.9038 56.9688C58.6954 58.2604 57.6538 58.9062 56.7788 58.9062C56.0913 58.9062 55.6433 59.0208 55.435 59.25C55.2267 59.4583 55.0183 60.0729 54.81 61.0938C54.6225 62.0729 54.7371 62.875 55.1538 63.5C55.4871 63.9167 55.7892 64.1458 56.06 64.1875C56.3308 64.2083 56.9038 64.0938 57.7788 63.8438C58.9663 63.5104 61.2683 62.1042 64.685 59.625C65.9975 58.6667 67.0288 57.9375 67.7788 57.4375C68.5288 56.9167 69.1538 56.5521 69.6538 56.3438C70.1538 56.1146 70.4975 56.0417 70.685 56.125C70.8725 56.1875 71.0288 56.3646 71.1538 56.6562ZM57.7475 54.3125C56.9975 55.3958 56.7683 56.0104 57.06 56.1562C57.2683 56.2188 57.6329 56.0104 58.1538 55.5312C58.9454 54.7812 59.3413 54.1875 59.3413 53.75C59.3413 53.1875 59.1538 53 58.7788 53.1875C58.4663 53.3333 58.1225 53.7083 57.7475 54.3125ZM87.4325 53.25C88.3908 52.8958 89.0992 52.8333 89.5575 53.0625C90.0367 53.2708 90.1408 53.7083 89.87 54.375C89.5783 55.1458 88.5679 55.6875 86.8388 56C85.1304 56.3125 83.9742 56.1667 83.37 55.5625C83.0992 55.2917 82.8908 55.1875 82.745 55.25C82.4117 55.375 81.4846 56.4062 79.9638 58.3438C79.5679 58.8646 78.7658 59.9062 77.5575 61.4688C75.7867 63.8229 74.5367 65.3542 73.8075 66.0625C73.0992 66.75 72.4221 67.125 71.7763 67.1875C71.1721 67.25 70.745 67.2188 70.495 67.0938C70.245 66.9479 70.0367 66.6562 69.87 66.2188C69.3908 64.7812 69.5783 62 70.4325 57.875C71.0158 54.8958 71.7242 53.375 72.5575 53.3125C72.7658 53.3125 72.9638 53.4062 73.1513 53.5938C73.3596 53.8229 73.4325 54.2708 73.37 54.9375C73.3283 55.5833 73.1617 56.6875 72.87 58.25C72.7242 58.9792 72.5992 59.5938 72.495 60.0938C72.4117 60.5938 72.3388 61.0729 72.2763 61.5312C72.2138 61.9688 72.1721 62.3229 72.1513 62.5938C72.1304 62.8438 72.1408 63.0625 72.1825 63.25C72.2242 63.4167 72.2763 63.5104 72.3388 63.5312C72.4221 63.5521 72.5471 63.5208 72.7138 63.4375C72.8804 63.3333 73.0575 63.1875 73.245 63C73.4325 62.7917 73.6721 62.5104 73.9638 62.1562C74.2763 61.7812 74.5888 61.3958 74.9013 61C75.2346 60.5833 75.6304 60.0625 76.0888 59.4375C77.1096 58.0625 79.0783 55.4271 81.995 51.5312L84.9013 47.6562C85.2346 47.2188 85.4638 46.9896 85.5888 46.9688C85.7346 46.9271 85.9846 47.0729 86.3388 47.4062C86.6929 47.7604 86.8492 48.1042 86.8075 48.4375C86.7867 48.7708 86.5367 49.5208 86.0575 50.6875C85.37 52.3542 85.1304 53.3021 85.3388 53.5312C85.5888 53.7812 86.2867 53.6875 87.4325 53.25ZM114.586 56.125C115.149 56.0625 115.545 56.2708 115.774 56.75C116.003 57.2292 115.857 57.7812 115.336 58.4062C114.92 58.8646 114.461 59.3542 113.961 59.875C113.461 60.375 112.618 61.1458 111.43 62.1875C110.243 63.2292 109.055 64.1667 107.868 65C106.68 65.8125 105.274 66.6042 103.649 67.375C102.024 68.1458 100.451 68.6771 98.93 68.9688C96.7217 69.3854 94.7633 69.0521 93.055 67.9688C91.3467 66.8646 90.3883 65.3229 90.18 63.3438C89.9717 61.2604 90.0967 59.0833 90.555 56.8125C90.9508 54.8958 91.4404 53.5104 92.0238 52.6562C92.6071 51.8021 93.2217 51.5833 93.8675 52C94.1592 52.1667 94.305 52.5625 94.305 53.1875C94.305 53.7917 94.1696 54.1771 93.8988 54.3438C93.6071 54.5312 93.2738 55.8854 92.8988 58.4062C92.6488 60.0104 92.5238 61.1458 92.5238 61.8125C92.5446 62.4583 92.7113 63.1562 93.0238 63.9062C93.6071 65.3229 94.7425 66.1146 96.43 66.2812C98.1383 66.4271 99.9196 66.125 101.774 65.375C103.649 64.625 105.368 63.6458 106.93 62.4375C107.909 61.6667 109.003 60.7396 110.211 59.6562C111.44 58.5521 112.399 57.6979 113.086 57.0938C113.795 56.4896 114.295 56.1667 114.586 56.125ZM95.555 48.1875C95.3258 48.4167 95.0342 48.5312 94.68 48.5312C94.3258 48.5312 94.0238 48.4167 93.7738 48.1875C93.5446 47.9375 93.43 47.6354 93.43 47.2812C93.43 46.9271 93.5446 46.6354 93.7738 46.4062C94.0238 46.1562 94.3258 46.0312 94.68 46.0312C95.0342 46.0312 95.3258 46.1562 95.555 46.4062C95.805 46.6354 95.93 46.9271 95.93 47.2812C95.93 47.6354 95.805 47.9375 95.555 48.1875ZM140.146 56.75C140.438 56.625 140.719 56.6667 140.99 56.875C141.282 57.0833 141.438 57.3958 141.459 57.8125C141.5 58.2083 141.334 58.6771 140.959 59.2188C140.396 59.9688 139.313 61 137.709 62.3125C136.125 63.625 135.052 64.4062 134.49 64.6562C132.282 65.5729 130.334 65.6146 128.646 64.7812C127.875 64.4062 127.209 63.6979 126.646 62.6562C126.105 61.6146 125.719 60.6771 125.49 59.8438C125.261 58.9896 125.125 58.5625 125.084 58.5625C124.73 58.5625 124.115 59.0208 123.24 59.9375C122.365 60.8542 121.573 61.8646 120.865 62.9688C118.969 65.9688 117.448 67.5729 116.302 67.7812C115.74 67.8854 115.344 67.6146 115.115 66.9688C114.969 66.6146 115.167 64.6875 115.709 61.1875C116.25 57.6875 116.792 54.8229 117.334 52.5938C117.584 51.6562 117.938 51 118.396 50.625C118.855 50.25 119.292 50.2604 119.709 50.6562C120 50.9479 119.834 52.8438 119.209 56.3438C118.563 59.8854 118.24 61.7292 118.24 61.875C118.24 61.9583 118.427 61.7708 118.802 61.3125C119.052 61.0208 119.344 60.6458 119.677 60.1875C120.594 58.9375 121.698 57.8646 122.99 56.9688C124.302 56.0521 125.323 55.6458 126.052 55.75C126.511 55.8125 126.855 56.0208 127.084 56.375C127.313 56.7292 127.563 57.4583 127.834 58.5625C128.542 61.3958 129.844 62.8125 131.74 62.8125C132.49 62.8125 133.344 62.5104 134.302 61.9062C135.261 61.3021 136.105 60.6458 136.834 59.9375C137.563 59.2083 138.25 58.5104 138.896 57.8438C139.563 57.1771 139.98 56.8125 140.146 56.75ZM207.798 71.125C207.548 71.2292 206.454 71.375 204.516 71.5625C202.6 71.7292 199.86 72.1458 196.298 72.8125C192.735 73.4583 189.027 74.3854 185.173 75.5938C180.527 77.0521 176.277 78.9479 172.423 81.2812C168.589 83.6354 165.308 86.2917 162.579 89.25C161.183 90.7917 160.266 91.7083 159.829 92C159.412 92.3125 158.985 92.3229 158.548 92.0312C158.256 91.8438 158.1 91.6354 158.079 91.4062C158.079 91.1771 158.183 90.7917 158.391 90.25C159.204 88.2292 160.943 84.1458 163.61 78C169.443 64.3333 173.36 54.8958 175.36 49.6875C177.381 44.4792 179.381 38.5625 181.36 31.9375C182.985 26.4792 183.745 23.6458 183.641 23.4375C183.6 23.3333 183.412 23.5312 183.079 24.0312C183.058 24.0521 183.037 24.0729 183.016 24.0938C182.579 24.7188 182.1 24.9792 181.579 24.875C181.079 24.7708 180.829 24.3542 180.829 23.625C180.829 23.3542 181.037 22.7917 181.454 21.9375C181.891 21.0625 182.412 20.1562 183.016 19.2188C184.495 16.7604 185.558 14.6667 186.204 12.9375C186.933 11.0833 187.579 10.1562 188.141 10.1562C188.704 10.1562 189.089 10.3229 189.298 10.6562C189.589 11.1146 188.568 15.5208 186.235 23.875C183.923 32.2083 181.725 39.3646 179.641 45.3438C177.995 50.0521 175.87 55.4583 173.266 61.5625C166.995 76.4583 163.86 83.9792 163.86 84.125C163.86 84.1667 164.016 84.0833 164.329 83.875C164.641 83.6667 165.079 83.3542 165.641 82.9375C166.225 82.5417 166.818 82.1042 167.423 81.625C170.318 79.4583 174.537 77.2812 180.079 75.0938C185.641 72.9062 190.173 71.4792 193.673 70.8125C195.506 70.4583 197.475 70.1458 199.579 69.875C201.683 69.5833 203.495 69.3542 205.016 69.1875C206.558 69.0208 207.37 68.9271 207.454 68.9062C207.975 68.8021 208.35 68.9062 208.579 69.2188C208.808 69.5104 208.839 69.8542 208.673 70.25C208.527 70.6458 208.235 70.9375 207.798 71.125ZM217.795 59.4375C219.837 57.2292 221.055 56.4375 221.451 57.0625C221.576 57.2708 221.639 57.6146 221.639 58.0938C221.639 58.5729 221.128 59.4062 220.107 60.5938C219.107 61.7812 218.003 62.875 216.795 63.875C215.607 64.8542 214.774 65.3438 214.295 65.3438C212.982 65.3438 212.128 64.7812 211.732 63.6562C211.337 62.5312 211.42 60.9375 211.982 58.875C212.649 56.5417 212.41 56.2604 211.264 58.0312C210.993 58.4479 210.68 58.9688 210.326 59.5938C208.097 63.5938 206.337 65.9375 205.045 66.625C204.42 66.9792 203.993 67.1667 203.764 67.1875C203.555 67.1875 203.107 67.0521 202.42 66.7812C201.691 66.4896 201.222 65.8646 201.014 64.9062C200.805 63.9271 200.805 62.3229 201.014 60.0938C201.493 54.6354 202.264 51.125 203.326 49.5625C203.805 48.8542 204.285 48.7396 204.764 49.2188C205.16 49.6146 205.097 51.0729 204.576 53.5938C204.201 55.3229 203.899 57.0417 203.67 58.75C203.441 60.4583 203.326 61.8021 203.326 62.7812C203.326 63.7396 203.43 64.2708 203.639 64.375C204.451 64.375 206.378 61.6667 209.42 56.25C210.795 53.8333 211.941 52.0833 212.857 51C213.774 49.8958 214.587 49.3438 215.295 49.3438C216.087 49.3438 216.514 49.8229 216.576 50.7812C216.639 51.7396 216.337 53.2812 215.67 55.4062C214.399 59.5729 213.91 61.875 214.201 62.3125C214.472 62.7083 215.441 62 217.107 60.1875C217.316 59.9583 217.545 59.7083 217.795 59.4375ZM239.292 55.2812C239.709 55.1771 239.99 55.2812 240.136 55.5938C240.303 55.9062 240.324 56.2708 240.199 56.6875C240.095 57.1042 239.907 57.3958 239.636 57.5625C239.428 57.6875 239.105 57.8021 238.667 57.9062C238.23 58.0104 237.459 58.25 236.355 58.625C235.272 59 233.959 59.5208 232.417 60.1875C230.147 61.1667 228.615 61.9062 227.824 62.4062C227.053 62.8854 226.365 63.5521 225.761 64.4062C224.782 65.7812 223.782 66.6875 222.761 67.125C221.761 67.5417 220.803 67.4688 219.886 66.9062C219.303 66.5312 218.886 66.0729 218.636 65.5312C218.386 64.9896 218.303 64.4583 218.386 63.9375C218.47 63.3958 218.553 62.9792 218.636 62.6875C218.74 62.3958 218.845 62.1562 218.949 61.9688C219.157 61.6146 219.438 61.2708 219.792 60.9375C220.147 60.5833 220.47 60.3438 220.761 60.2188C221.49 59.9271 221.855 59.4167 221.855 58.6875C221.876 57.8958 222.386 56.6667 223.386 55C224.407 53.3333 225.324 52.2083 226.136 51.625C227.261 50.8125 228.178 50.375 228.886 50.3125C229.615 50.25 230.24 50.5208 230.761 51.125C231.074 51.4792 231.282 51.7604 231.386 51.9688C231.511 52.1562 231.605 52.5208 231.667 53.0625C231.73 53.6042 231.647 54.25 231.417 55C231.313 55.4792 231.157 55.9792 230.949 56.5C230.761 57.0208 230.605 57.4271 230.48 57.7188C230.355 58.0104 230.292 58.1667 230.292 58.1875C230.313 58.2083 230.98 58 232.292 57.5625C233.605 57.125 235.011 56.6562 236.511 56.1562C238.032 55.6562 238.959 55.3646 239.292 55.2812ZM222.792 63.9375C223.209 63.5 223.459 63.2083 223.542 63.0625C223.626 62.9167 223.636 62.7917 223.574 62.6875C223.511 62.5833 223.292 62.4375 222.917 62.25C222.522 62.0208 222.22 61.9375 222.011 62C221.824 62.0417 221.626 62.2604 221.417 62.6562C221.23 63.0312 221.084 63.4062 220.98 63.7812C220.897 64.1562 220.876 64.4688 220.917 64.7188C220.98 64.9688 221.105 65.0938 221.292 65.0938C221.605 65.0938 222.105 64.7083 222.792 63.9375ZM227.167 57.7188C228.147 56.0312 228.636 54.8229 228.636 54.0938C228.636 53.6146 228.584 53.3438 228.48 53.2812C228.376 53.2188 228.115 53.3125 227.699 53.5625C227.157 53.9167 226.449 54.8438 225.574 56.3438C224.699 57.8438 224.261 58.8958 224.261 59.5C224.261 60.2292 224.532 60.4583 225.074 60.1875C225.72 59.875 226.417 59.0521 227.167 57.7188Z" fill="#AAAAAA"/>
</svg>
